<?xml version="1.0" encoding="UTF-8" standalone="no"?>
<!DOCTYPE svg PUBLIC "-//W3C//DTD SVG 1.1//EN" "http://www.w3.org/Graphics/SVG/1.1/DTD/svg11.dtd">
<svg version="1.1" xmlns="http://www.w3.org/2000/svg" xmlns:xlink="http://www.w3.org/1999/xlink" preserveAspectRatio="xMidYMid meet" viewBox="0 0 400 400" width="400" height="400"><defs><path d="M0 0L400 0L400 400L0 400L0 0Z" id="acA2lstOA"></path><path d="" id="bLysH6JxE"></path><path d="M300 200C300 255.19 255.19 300 200 300C144.81 300 100 255.19 100 200C100 144.81 144.81 100 200 100C255.19 100 300 144.81 300 200Z" id="cYUjWbGEm"></path><path d="M225 65L225 83.97L225 97.06L225 113.41L225 124.53L225 135" id="b36tv5dfZ6"></path><path d="M175 101.7L175 117.96L175 129.17L175 143.19L175 152.72L175 161.7" id="eeOimNxg9"></path><path d="M225 200C225 213.79 213.8 225 200 225C186.2 225 175 213.79 175 200C175 186.2 186.2 175 200 175C213.8 175 225 186.2 225 200Z" id="b46sZCRuXq"></path><path d="M225 145L225 166.68L225 181.63L225 200.32L225 213.03L225 225" id="dz4ap6Day"></path><path d="M175 175L175 196.68L175 211.63L175 230.32L175 243.03L175 255" id="a5d12pZtYO"></path><path d="M225 233.93L225 250.19L225 261.41L225 275.43L225 284.96L225 293.93" id="a4wvn0l8R"></path><path d="M175 265.82L175 284.79L175 297.88L175 314.23L175 325.35L175 335.82" id="b6fqPHL8S6"></path></defs><g><g><g><use xlink:href="#acA2lstOA" opacity="1" fill="#0e3447" fill-opacity="1"></use><g><use xlink:href="#acA2lstOA" opacity="1" fill-opacity="0" stroke="#0e3447" stroke-width="0" stroke-opacity="1"></use></g></g><g><g><use xlink:href="#bLysH6JxE" opacity="1" fill-opacity="0" stroke="#2cc1a6" stroke-width="10" stroke-opacity="1"></use></g></g><g><use xlink:href="#cYUjWbGEm" opacity="1" fill="#0e3447" fill-opacity="1"></use><g><use xlink:href="#cYUjWbGEm" opacity="1" fill-opacity="0" stroke="#c6dae7" stroke-width="10" stroke-opacity="1"></use></g></g><g><g><use xlink:href="#b36tv5dfZ6" opacity="1" fill-opacity="0" stroke="#c6dae7" stroke-width="10" stroke-opacity="1"></use></g></g><g><g><use xlink:href="#eeOimNxg9" opacity="1" fill-opacity="0" stroke="#c6dae7" stroke-width="10" stroke-opacity="1"></use></g></g><g><g><filter id="shadow6885223" x="166" y="166" width="69" height="69" filterUnits="userSpaceOnUse" primitiveUnits="userSpaceOnUse"><feFlood></feFlood><feComposite in2="SourceAlpha" operator="in"></feComposite><feGaussianBlur stdDeviation="1"></feGaussianBlur><feOffset dx="1" dy="1" result="afterOffset"></feOffset><feFlood flood-color="#000000" flood-opacity="0.5"></feFlood><feComposite in2="afterOffset" operator="in"></feComposite><feMorphology operator="dilate" radius="1"></feMorphology><feComposite in2="SourceAlpha" operator="out"></feComposite></filter><path d="M225 200C225 213.79 213.8 225 200 225C186.2 225 175 213.79 175 200C175 186.2 186.2 175 200 175C213.8 175 225 186.2 225 200Z" id="clKhIb7XX" fill="white" fill-opacity="1" filter="url(#shadow6885223)"></path></g><use xlink:href="#b46sZCRuXq" opacity="1" fill="#0e3447" fill-opacity="1"></use><g><use xlink:href="#b46sZCRuXq" opacity="1" fill-opacity="0" stroke="#3fdad2" stroke-width="10" stroke-opacity="1"></use></g></g><g><g><use xlink:href="#dz4ap6Day" opacity="1" fill-opacity="0" stroke="#3fdad2" stroke-width="10" stroke-opacity="1"></use></g></g><g><g><use xlink:href="#a5d12pZtYO" opacity="1" fill-opacity="0" stroke="#3fdad2" stroke-width="10" stroke-opacity="1"></use></g></g><g><g><use xlink:href="#a4wvn0l8R" opacity="1" fill-opacity="0" stroke="#c6dae7" stroke-width="10" stroke-opacity="1"></use></g></g><g><g><use xlink:href="#b6fqPHL8S6" opacity="1" fill-opacity="0" stroke="#c6dae7" stroke-width="10" stroke-opacity="1"></use></g></g></g></g></svg>